<?xml version="1.0" standalone="no"?>
<!DOCTYPE svg PUBLIC "-//W3C//DTD SVG 20010904//EN" "http://www.w3.org/TR/2001/REC-SVG-20010904/DTD/svg10.dtd">
<!-- Created using Krita: https://krita.org -->
<svg xmlns="http://www.w3.org/2000/svg" 
    xmlns:xlink="http://www.w3.org/1999/xlink"
    xmlns:krita="http://krita.org/namespaces/svg/krita"
    xmlns:sodipodi="http://sodipodi.sourceforge.net/DTD/sodipodi-0.dtd"
    width="420.96pt"
    height="595.2pt"
    viewBox="0 0 420.96 595.2">
<defs/>
<rect id="shape0" transform="matrix(1.52428750770892 0 0 0.974964554939103 216.19204535787 165.366232241869)" fill="#152436" fill-rule="evenodd" stroke="#152436" stroke-width="14.4624" stroke-linecap="square" stroke-linejoin="bevel" width="24" height="98.88" rx="12" ry="13.92"/><rect id="shape1" transform="matrix(0.999999979490875 0 0 0.999999979490875 199.200004503804 308.879993665142)" fill="#152436" fill-rule="evenodd" stroke="#152436" stroke-width="8.9424" stroke-linecap="square" stroke-linejoin="bevel" width="68.64" height="9.59999999999997" rx="8.88" ry="4.79999999999998"/><rect id="shape2" transform="matrix(0.999999979490875 0 0 0.999999979490875 230.400003863919 286.319994127827)" fill="#152436" fill-rule="evenodd" stroke="#152436" stroke-width="8.9424" stroke-linecap="square" stroke-linejoin="bevel" width="7.44" height="24.48" rx="3.72" ry="8.88"/><rect id="shape01" transform="matrix(0.570037586608378 0.0173783306778321 -0.00266712871876214 0.543006855060719 180.67750654702 222.733439859943)" fill="#152436" fill-rule="evenodd" stroke="#152436" stroke-width="8.9424" stroke-linecap="square" stroke-linejoin="bevel" width="13.2" height="45.6" rx="6.6" ry="8.88"/><rect id="shape02" transform="matrix(0.570037586608378 0.0173783306778321 -0.00266712871876214 0.543006855060719 280.517504499389 222.733439859943)" fill="#152436" fill-rule="evenodd" stroke="#152436" stroke-width="8.9424" stroke-linecap="square" stroke-linejoin="bevel" width="13.2" height="45.6" rx="6.6" ry="8.88"/><path id="shape0" transform="matrix(0.97759507359744 0.00699551785998736 -0.00688156189406803 0.97496418798281 184.399783360594 239.616161250628)" fill="none" stroke="#152436" stroke-width="12.8832" stroke-linecap="square" stroke-linejoin="bevel" d="M0 0C0 26.3255 22.8676 48.3661 49.0449 48.3661"/><path id="shape1" transform="matrix(-0.97759507359744 0.00699551785998736 0.00688156189406803 0.97496418798281 284.320216639406 239.616161250628)" fill="none" stroke="#152436" stroke-width="12.8832" stroke-linecap="square" stroke-linejoin="bevel" d="M0 0C0 26.3255 22.8676 48.3661 49.0449 48.3661"/><rect id="shape03" transform="matrix(0.999999979490875 0 0 0.999999979490875 90.9600067237114 141.839997090986)" fill="#1198c1" fill-rule="evenodd" stroke="#1198c1" stroke-width="9.6" stroke-linecap="square" stroke-linejoin="bevel" width="44.88" height="198.48" rx="4.32" ry="4.32"/><rect id="shape11" transform="matrix(0.999999979490875 0 0 0.999999979490875 113.04000627087 135.359997223885)" fill="#1198c1" fill-rule="evenodd" stroke="#1198c1" stroke-width="9.6" stroke-linecap="square" stroke-linejoin="bevel" width="21.84" height="12" rx="4.32" ry="4.32"/><rect id="shape21" transform="matrix(0.999999979490875 0 0 0.999999979490875 92.8800066843339 334.319993143389)" fill="#1198c1" fill-rule="evenodd" stroke="#1198c1" stroke-width="9.6" stroke-linecap="square" stroke-linejoin="bevel" width="12.24" height="12.48" rx="4.32" ry="4.32"/><path id="shape3" transform="matrix(0.999999979490875 0 0 0.999999979490875 297.120000039039 129.599996270518)" fill="#1198c1" fill-rule="evenodd" stroke="#000000" stroke-opacity="0" stroke-width="0" stroke-linecap="square" stroke-linejoin="bevel" d="M0 0L37.92 34.08Z"/><path id="shape04" transform="matrix(0.999999979490875 0 0 0.999999979490875 293.399991402088 131.039992323783)" fill="#1198c1" fill-rule="evenodd" stroke="#000000" stroke-opacity="0" stroke-width="0" stroke-linecap="square" stroke-linejoin="bevel" d="M0 0L41.04 39.6Z"/><path id="shape12" transform="matrix(0.999999979490875 0 0 0.999999979490875 289.079991655151 131.039992323783)" fill="#1198c1" fill-rule="evenodd" stroke="#000000" stroke-opacity="0" stroke-width="0" stroke-linecap="square" stroke-linejoin="bevel" d="M44.64 0L45 45.36L0 0.72Z"/><path id="shape05" transform="matrix(0.999999979490875 0 0 -0.999999979490875 293.399991402088 344.399997925358)" fill="#1198c1" fill-rule="evenodd" stroke="#000000" stroke-opacity="0" stroke-width="0" stroke-linecap="square" stroke-linejoin="bevel" d="M0 0L41.04 39.6Z"/><path id="shape13" transform="matrix(0.999999979490875 0 0 -0.999999979490875 289.079991655151 344.399997925358)" fill="#1198c1" fill-rule="evenodd" stroke="#000000" stroke-opacity="0" stroke-width="0" stroke-linecap="square" stroke-linejoin="bevel" d="M44.64 0L45 45.36L0 0.72Z"/><path id="shape06" transform="matrix(0.999999979490875 0 0 0.999999979490875 291.239991528619 132.839992218341)" fill="none" stroke="#152436" stroke-width="9.6" stroke-linecap="square" stroke-linejoin="miter" stroke-miterlimit="2" d="M0 0L44.28 45"/><path id="shape14" transform="matrix(0.999999979490875 0 0 0.999999979490875 293.759991381 297.599993896484)" fill="none" stroke="#152436" stroke-width="9.6" stroke-linecap="square" stroke-linejoin="miter" stroke-miterlimit="2" d="M0 42.24L41.76 0"/><rect id="shape07" transform="matrix(0.986259736618208 0 0 0.929970495317343 170.264834880717 363.01323620447)" fill="#152436" fill-rule="evenodd" stroke="#152436" stroke-width="9.6" stroke-linecap="square" stroke-linejoin="bevel" width="147.6" height="2.88" rx="4.32" ry="1.44"/><rect id="shape08" transform="matrix(0.986259736618208 0 0 0.929970495317343 170.264834880717 379.813235859917)" fill="#152436" fill-rule="evenodd" stroke="#152436" stroke-width="9.6" stroke-linecap="square" stroke-linejoin="bevel" width="147.6" height="2.88" rx="4.32" ry="1.44"/><rect id="shape09" transform="matrix(0.959807500673477 0 0 0.992364699578387 136.726375903907 127.916119566487)" fill="none" stroke="#152436" stroke-width="14.4624" stroke-linecap="square" stroke-linejoin="bevel" width="209.04" height="220.08" rx="4.32" ry="4.32"/><path id="shape15" transform="matrix(0.999999958981751 0 0 0.999999958981751 87.9241822583147 344.516662577117)" fill="none" stroke="#152436" stroke-width="14.4624" stroke-linecap="square" stroke-linejoin="bevel" d="M41.6695 0C-5.68764 0.00120586 -14.2215 54.7214 24.0309 54.7204"/><path id="shape010" transform="matrix(0.999999979490875 0 0 0.999999979490875 111.836016589607 349.67844383125)" fill="none" stroke="#152436" stroke-width="3.7512" stroke-linecap="square" stroke-linejoin="bevel" d="M33.3472 0C22.3663 0 11.0708 0.254558 0 0.254558"/><path id="shape011" transform="matrix(0.966266896861279 0 0 1.01132067571845 87.3357811806368 128.369852580372)" fill="none" stroke="#152436" stroke-width="14.4624" stroke-linecap="square" stroke-linejoin="bevel" d="M48.4829 0.240984L37.6829 0L28.0828 1.43913L21.3626 3.11851L13.2024 5.99777L9.60214 8.39744L4.08168 13.4369L0.961159 19.1967L0 31.9166L0.461087 239.517"/><rect id="shape012" transform="matrix(1.13153597240931 0 0 1.08613601382185 107.581967995575 397.351056896218)" fill="#152436" fill-rule="evenodd" stroke="#152436" stroke-width="9.9936" stroke-linecap="square" stroke-linejoin="bevel" width="203.04" height="3.35999999999996" rx="4.32" ry="1.67999999999998"/><path id="shape2" transform="translate(110.051719388997, 370.265034501311)" fill="#1198c1" fill-rule="evenodd" d="M0 0.721855L3.83965 0Z"/><path id="shape3" transform="translate(110.802785448393, 370.746483426021)" fill="#1198c1" fill-rule="evenodd" d="M0.0888179 0L0 64.5601L20.6282 40.1901L20.4889 0.230147Z"/><path id="shape4" transform="matrix(-1 0 0 1 152.268280611003 370.265034501311)" fill="#1198c1" fill-rule="evenodd" d="M0 0.721855L3.83965 0Z"/><path id="shape5" transform="matrix(-1 0 0 1 151.517214551607 370.746483426021)" fill="#1198c1" fill-rule="evenodd" d="M0.0888179 0L0 64.5601L20.6282 40.1901L20.4889 0.230147Z"/>
</svg>
