<?xml version="1.0" encoding="UTF-8"?>
<svg xmlns="http://www.w3.org/2000/svg" xmlns:xlink="http://www.w3.org/1999/xlink" width="16px" height="16px" viewBox="0 0 16 16" version="1.1">
<g id="surface1">
<path style="fill-rule:evenodd;fill:rgb(100%,100%,100%);fill-opacity:1;stroke-width:9.6;stroke-linecap:square;stroke-linejoin:bevel;stroke:rgb(100%,100%,100%);stroke-opacity:1;stroke-miterlimit:4;" d="M 2.889374 0.000938416 L 292.811249 0.000938416 C 294.334686 0.000938416 295.623749 1.290001 295.623749 2.930626 L 295.623749 311.954063 C 295.623749 313.594688 294.334686 314.883751 292.811249 314.883751 L 2.889374 314.883751 C 1.248749 314.883751 -0.0403137 313.594688 -0.0403137 311.954063 L -0.0403137 2.930626 C -0.0403137 1.290001 1.248749 0.000938416 2.889374 0.000938416 Z M 2.889374 0.000938416 " transform="matrix(0.0333333,0,0,0.0333333,4.224,0.832)"/>
<path style="fill:none;stroke-width:9.6;stroke-linecap:square;stroke-linejoin:bevel;stroke:rgb(100%,100%,100%);stroke-opacity:1;stroke-miterlimit:4;" d="M 0.343124 0.0309448 L 0.694687 0.0309448 L -0.00843811 0.0309448 Z M 0.343124 0.0309448 " transform="matrix(0.0333333,0,0,0.0333333,2.512,10.456)"/>
<path style="fill-rule:evenodd;fill:rgb(100%,100%,100%);fill-opacity:1;stroke-width:9.6;stroke-linecap:square;stroke-linejoin:bevel;stroke:rgb(100%,100%,100%);stroke-opacity:1;stroke-miterlimit:4;" d="M 2.872498 0.00842285 L 349.395935 0.00842285 C 351.03656 0.00842285 352.325623 1.297485 352.325623 2.93811 L 352.325623 105.12561 C 352.325623 106.766235 351.03656 108.055298 349.395935 108.055298 L 2.872498 108.055298 C 1.231873 108.055298 -0.0571899 106.766235 -0.0571899 105.12561 L -0.0571899 2.93811 C -0.0571899 1.297485 1.231873 0.00842285 2.872498 0.00842285 Z M 2.872498 0.00842285 " transform="matrix(0.0333333,0,0,0.0333333,2.248,10.488)"/>
<path style="fill-rule:evenodd;fill:rgb(100%,100%,100%);fill-opacity:1;stroke-width:9.6;stroke-linecap:square;stroke-linejoin:bevel;stroke:rgb(100%,100%,100%);stroke-opacity:1;stroke-miterlimit:4;" d="M 2.888435 -0.0262451 L 40.505623 -0.0262451 C 42.146248 -0.0262451 43.43531 1.262817 43.43531 2.903442 L 43.43531 57.630005 C 43.43531 59.153442 42.146248 60.442505 40.505623 60.442505 L 2.888435 60.442505 C 1.24781 60.442505 -0.0412521 59.153442 -0.0412521 57.630005 L -0.0412521 2.903442 C -0.0412521 1.262817 1.24781 -0.0262451 2.888435 -0.0262451 Z M 2.888435 -0.0262451 " transform="matrix(0.0333333,0,0,0.0333333,2.392,11.704)"/>
<path style="fill-rule:evenodd;fill:rgb(8.235294%,14.117648%,21.176471%);fill-opacity:1;stroke-width:14.4624;stroke-linecap:square;stroke-linejoin:bevel;stroke:rgb(8.235294%,14.117648%,21.176471%);stroke-opacity:1;stroke-miterlimit:4;" d="M 12.009029 0.0102597 C 18.636676 0.0102597 23.979894 6.194952 23.979894 13.905738 L 23.979894 84.989541 C 23.979894 92.620005 18.636676 98.885018 12.009029 98.885018 C 5.381383 98.885018 -0.0132122 92.620005 -0.0132122 84.989541 L -0.0132122 13.905738 C -0.0132122 6.194952 5.381383 0.0102597 12.009029 0.0102597 Z M 12.009029 0.0102597 " transform="matrix(0.076031,0,0,0.0486332,8.208036,2.495595)"/>
<path style="fill-rule:evenodd;fill:rgb(8.235294%,14.117648%,21.176471%);fill-opacity:1;stroke-width:8.9424;stroke-linecap:square;stroke-linejoin:bevel;stroke:rgb(8.235294%,14.117648%,21.176471%);stroke-opacity:1;stroke-miterlimit:4;" d="M 8.905619 0.0381353 L 59.731064 0.0381353 C 64.664813 0.0381353 68.6588 2.1525 68.6588 4.815034 C 68.6588 7.477568 64.664813 9.591933 59.731064 9.591933 L 8.905619 9.591933 C 3.97187 9.591933 -0.0221174 7.477568 -0.0221174 4.815034 C -0.0221174 2.1525 3.97187 0.0381353 8.905619 0.0381353 Z M 8.905619 0.0381353 " transform="matrix(0.0498797,0,0,0.049882,7.360478,9.654348)"/>
<path style="fill-rule:evenodd;fill:rgb(8.235294%,14.117648%,21.176471%);fill-opacity:1;stroke-width:8.9424;stroke-linecap:square;stroke-linejoin:bevel;stroke:rgb(8.235294%,14.117648%,21.176471%);stroke-opacity:1;stroke-miterlimit:4;" d="M 3.705696 -0.033404 C 5.741846 -0.033404 7.464743 3.960397 7.464743 8.893915 L 7.464743 15.62856 C 7.464743 20.483769 5.741846 24.477569 3.705696 24.477569 C 1.669545 24.477569 0.0249624 20.483769 0.0249624 15.62856 L 0.0249624 8.893915 C 0.0249624 3.960397 1.669545 -0.033404 3.705696 -0.033404 Z M 3.705696 -0.033404 " transform="matrix(0.0498797,0,0,0.049882,8.916724,8.52901)"/>
<path style="fill-rule:evenodd;fill:rgb(8.235294%,14.117648%,21.176471%);fill-opacity:1;stroke-width:8.9424;stroke-linecap:square;stroke-linejoin:bevel;stroke:rgb(8.235294%,14.117648%,21.176471%);stroke-opacity:1;stroke-miterlimit:4;" d="M 6.626715 0.0129551 C 10.198813 0.0428492 13.239677 3.983554 13.262616 8.886135 L 13.255463 36.719889 C 13.141039 41.626866 10.274644 45.612411 6.565184 45.586913 C 2.993086 45.557019 -0.0477782 41.616314 0.0666457 36.709337 L -0.0635641 8.879979 C 0.0508598 3.973002 2.917255 -0.0125429 6.626715 0.0129551 Z M 6.626715 0.0129551 " transform="matrix(0.0284333,0.000866866,-0.000133035,0.0270863,6.436582,5.357186)"/>
<path style="fill-rule:evenodd;fill:rgb(8.235294%,14.117648%,21.176471%);fill-opacity:1;stroke-width:8.9424;stroke-linecap:square;stroke-linejoin:bevel;stroke:rgb(8.235294%,14.117648%,21.176471%);stroke-opacity:1;stroke-miterlimit:4;" d="M 6.643707 0.0124113 C 10.215805 0.0423054 13.256669 3.98301 13.142245 8.889987 L 13.135092 36.723741 C 13.158031 41.626322 10.291635 45.611867 6.582175 45.586369 C 3.010077 45.556475 -0.0307868 41.61577 -0.0537253 36.713189 L -0.0465726 8.879435 C 0.0678513 3.972458 2.934246 -0.0130867 6.643707 0.0124113 Z M 6.643707 0.0124113 " transform="matrix(0.0284333,0.000866866,-0.000133035,0.0270863,11.416568,5.357186)"/>
<path style="fill:none;stroke-width:12.8832;stroke-linecap:square;stroke-linejoin:bevel;stroke:rgb(8.235294%,14.117648%,21.176471%);stroke-opacity:1;stroke-miterlimit:4;" d="M -0.0236927 -0.00210994 C 0.00154053 26.342901 22.907189 48.347065 49.022869 48.400643 " transform="matrix(0.0487621,0.00034895,-0.00034325,0.0486332,6.622248,6.19933)"/>
<path style="fill:none;stroke-width:12.8832;stroke-linecap:square;stroke-linejoin:bevel;stroke:rgb(8.235294%,14.117648%,21.176471%);stroke-opacity:1;stroke-miterlimit:4;" d="M 0.0159214 -0.00239417 C -0.0389497 26.343192 22.866698 48.347355 49.062483 48.400359 " transform="matrix(-0.0487621,0.00034895,0.00034325,0.0486332,11.606246,6.19933)"/>
<path style="fill-rule:evenodd;fill:rgb(6.666667%,59.607846%,75.686276%);fill-opacity:1;stroke-width:9.6;stroke-linecap:square;stroke-linejoin:bevel;stroke:rgb(6.666667%,59.607846%,75.686276%);stroke-opacity:1;stroke-miterlimit:4;" d="M 4.295899 -0.0350176 L 40.555038 -0.0350176 C 42.982756 -0.0350176 44.86228 1.922728 44.86228 4.350332 L 44.86228 194.173335 C 44.86228 196.522629 42.982756 198.480375 40.555038 198.480375 L 4.295899 198.480375 C 1.946495 198.480375 -0.0113417 196.522629 -0.0113417 194.173335 L -0.0113417 4.350332 C -0.0113417 1.922728 1.946495 -0.0350176 4.295899 -0.0350176 Z M 4.295899 -0.0350176 " transform="matrix(0.0498797,0,0,0.049882,1.961503,1.322059)"/>
<path style="fill-rule:evenodd;fill:rgb(6.666667%,59.607846%,75.686276%);fill-opacity:1;stroke-width:9.6;stroke-linecap:square;stroke-linejoin:bevel;stroke:rgb(6.666667%,59.607846%,75.686276%);stroke-opacity:1;stroke-miterlimit:4;" d="M 4.300302 0.0235783 L 17.535279 0.0235783 C 19.884684 0.0235783 21.84252 1.903014 21.84252 4.330618 L 21.84252 7.697941 C 21.84252 10.047235 19.884684 12.004981 17.535279 12.004981 L 4.300302 12.004981 C 1.950898 12.004981 -0.0069391 10.047235 -0.0069391 7.697941 L -0.0069391 4.330618 C -0.0069391 1.903014 1.950898 0.0235783 4.300302 0.0235783 Z M 4.300302 0.0235783 " transform="matrix(0.0498797,0,0,0.049882,3.062846,0.998824)"/>
<path style="fill-rule:evenodd;fill:rgb(6.666667%,59.607846%,75.686276%);fill-opacity:1;stroke-width:9.6;stroke-linecap:square;stroke-linejoin:bevel;stroke:rgb(6.666667%,59.607846%,75.686276%);stroke-opacity:1;stroke-miterlimit:4;" d="M 4.333738 -0.0294885 L 7.936158 -0.0294885 C 10.285562 -0.0294885 12.243399 1.928257 12.243399 4.355861 L 12.243399 8.193042 C 12.243399 10.542337 10.285562 12.500083 7.936158 12.500083 L 4.333738 12.500083 C 1.90602 12.500083 0.0264971 10.542337 0.0264971 8.193042 L 0.0264971 4.355861 C 0.0264971 1.928257 1.90602 -0.0294885 4.333738 -0.0294885 Z M 4.333738 -0.0294885 " transform="matrix(0.0498797,0,0,0.049882,2.057272,10.923346)"/>
<path style=" stroke:none;fill-rule:evenodd;fill:rgb(6.666667%,59.607846%,75.686276%);fill-opacity:1;" d="M 12.246094 0.710938 L 14.136719 2.410156 Z M 12.246094 0.710938 "/>
<path style=" stroke:none;fill-rule:evenodd;fill:rgb(6.666667%,59.607846%,75.686276%);fill-opacity:1;" d="M 12.058594 0.785156 L 14.105469 2.757812 Z M 12.058594 0.785156 "/>
<path style=" stroke:none;fill-rule:evenodd;fill:rgb(6.666667%,59.607846%,75.686276%);fill-opacity:1;" d="M 14.070312 0.785156 L 14.089844 3.046875 L 11.84375 0.820312 Z M 14.070312 0.785156 "/>
<path style=" stroke:none;fill-rule:evenodd;fill:rgb(6.666667%,59.607846%,75.686276%);fill-opacity:1;" d="M 12.058594 11.425781 L 14.105469 9.449219 Z M 12.058594 11.425781 "/>
<path style=" stroke:none;fill-rule:evenodd;fill:rgb(6.666667%,59.607846%,75.686276%);fill-opacity:1;" d="M 14.070312 11.425781 L 14.089844 9.164062 L 11.84375 11.390625 Z M 14.070312 11.425781 "/>
<path style="fill:none;stroke-width:9.6;stroke-linecap:square;stroke-linejoin:miter;stroke:rgb(8.235294%,14.117648%,21.176471%);stroke-opacity:1;stroke-miterlimit:2;" d="M 0.0345273 0.0376688 L 44.281641 44.987505 " transform="matrix(0.0498797,0,0,0.049882,11.951403,0.873121)"/>
<path style="fill:none;stroke-width:9.6;stroke-linecap:square;stroke-linejoin:miter;stroke:rgb(8.235294%,14.117648%,21.176471%);stroke-opacity:1;stroke-miterlimit:2;" d="M 0.0205777 42.250513 L 41.76166 -0.0367893 " transform="matrix(0.0498797,0,0,0.049882,12.077099,9.091679)"/>
<path style="fill-rule:evenodd;fill:rgb(8.235294%,14.117648%,21.176471%);fill-opacity:1;stroke-width:9.6;stroke-linecap:square;stroke-linejoin:bevel;stroke:rgb(8.235294%,14.117648%,21.176471%);stroke-opacity:1;stroke-miterlimit:4;" d="M 4.303435 0.0182448 L 143.26133 0.0182448 C 145.643465 0.0182448 147.628578 0.607692 147.628578 1.44976 C 147.628578 2.207621 145.643465 2.881275 143.26133 2.881275 L 4.303435 2.881275 C 1.9213 2.881275 0.0155914 2.207621 0.0155914 1.44976 C 0.0155914 0.607692 1.9213 0.0182448 4.303435 0.0182448 Z M 4.303435 0.0182448 " transform="matrix(0.0491943,0,0,0.0463888,5.917202,12.354622)"/>
<path style="fill-rule:evenodd;fill:rgb(8.235294%,14.117648%,21.176471%);fill-opacity:1;stroke-width:9.6;stroke-linecap:square;stroke-linejoin:bevel;stroke:rgb(8.235294%,14.117648%,21.176471%);stroke-opacity:1;stroke-miterlimit:4;" d="M 4.303435 -0.0265778 L 143.26133 -0.0265778 C 145.643465 -0.0265778 147.628578 0.647076 147.628578 1.404937 C 147.628578 2.247005 145.643465 2.920659 143.26133 2.920659 L 4.303435 2.920659 C 1.9213 2.920659 0.0155914 2.247005 0.0155914 1.404937 C 0.0155914 0.647076 1.9213 -0.0265778 4.303435 -0.0265778 Z M 4.303435 -0.0265778 " transform="matrix(0.0491943,0,0,0.0463888,5.917202,13.192639)"/>
<path style="fill:none;stroke-width:14.4624;stroke-linecap:square;stroke-linejoin:bevel;stroke:rgb(8.235294%,14.117648%,21.176471%);stroke-opacity:1;stroke-miterlimit:4;" d="M 4.279994 0.0282384 L 204.753734 0.0282384 C 207.119928 0.0282384 209.078158 1.922134 209.078158 4.289504 L 209.078158 215.774563 C 209.078158 218.141933 207.119928 220.114741 204.753734 220.114741 L 4.279994 220.114741 C 1.9138 220.114741 0.037163 218.141933 0.037163 215.774563 L 0.037163 4.289504 C 0.037163 1.922134 1.9138 0.0282384 4.279994 0.0282384 Z M 4.279994 0.0282384 " transform="matrix(0.0478749,0,0,0.0495011,4.244315,0.627508)"/>
<path style="fill:none;stroke-width:14.4624;stroke-linecap:square;stroke-linejoin:bevel;stroke:rgb(8.235294%,14.117648%,21.176471%);stroke-opacity:1;stroke-miterlimit:4;" d="M 41.633019 0.0324252 C -5.66832 0.0324252 -14.204489 54.692679 24.012487 54.692679 " transform="matrix(0.0498797,0,0,0.049882,1.810078,11.431976)"/>
<path style="fill:none;stroke-width:3.7512;stroke-linecap:square;stroke-linejoin:bevel;stroke:rgb(8.235294%,14.117648%,21.176471%);stroke-opacity:1;stroke-miterlimit:4;" d="M 33.383887 0.0390937 C 22.341687 0.0390937 11.064547 0.274023 0.0223469 0.274023 " transform="matrix(0.0498797,0,0,0.049882,3.002792,11.689456)"/>
<path style="fill:none;stroke-width:14.4624;stroke-linecap:square;stroke-linejoin:bevel;stroke:rgb(8.235294%,14.117648%,21.176471%);stroke-opacity:1;stroke-miterlimit:4;" d="M 48.477209 0.275954 L 37.697897 -0.0337787 L 28.05325 1.437452 L 21.326311 3.140983 L 13.221565 6.006013 L 9.57443 8.406442 L 4.063203 13.439602 L 0.9834 19.16966 L 0.0108301 31.946142 L 0.497115 239.544611 " transform="matrix(0.0481971,0,0,0.0504467,1.780728,0.650142)"/>
<path style="fill-rule:evenodd;fill:rgb(8.235294%,14.117648%,21.176471%);fill-opacity:1;stroke-width:9.9936;stroke-linecap:square;stroke-linejoin:bevel;stroke:rgb(8.235294%,14.117648%,21.176471%);stroke-opacity:1;stroke-miterlimit:4;" d="M 4.332962 -0.0194706 L 198.743521 -0.0194706 C 201.096657 -0.0194706 203.034533 0.773623 203.034533 1.710916 C 203.034533 2.57611 201.096657 3.369204 198.743521 3.369204 L 4.332962 3.369204 C 1.910616 3.369204 -0.0272604 2.57611 -0.0272604 1.710916 C -0.0272604 0.773623 1.910616 -0.0194706 4.332962 -0.0194706 Z M 4.332962 -0.0194706 " transform="matrix(0.0564406,0,0,0.0541786,2.790601,14.067461)"/>
<path style=" stroke:none;fill-rule:evenodd;fill:rgb(6.666667%,59.607846%,75.686276%);fill-opacity:1;" d="M 2.914062 12.753906 L 3.105469 12.714844 Z M 2.914062 12.753906 "/>
<path style=" stroke:none;fill-rule:evenodd;fill:rgb(6.666667%,59.607846%,75.686276%);fill-opacity:1;" d="M 2.957031 12.742188 L 2.953125 15.960938 L 3.980469 14.746094 L 3.972656 12.75 Z M 2.957031 12.742188 "/>
<path style=" stroke:none;fill-rule:evenodd;fill:rgb(6.666667%,59.607846%,75.686276%);fill-opacity:1;" d="M 5.019531 12.753906 L 4.828125 12.714844 Z M 5.019531 12.753906 "/>
<path style=" stroke:none;fill-rule:evenodd;fill:rgb(6.666667%,59.607846%,75.686276%);fill-opacity:1;" d="M 4.976562 12.742188 L 4.980469 15.960938 L 3.953125 14.746094 L 3.960938 12.75 Z M 4.976562 12.742188 "/>
</g>
</svg>
