<?xml version="1.0" encoding="UTF-8"?>
<svg xmlns="http://www.w3.org/2000/svg" xmlns:xlink="http://www.w3.org/1999/xlink" width="32px" height="32px" viewBox="0 0 32 32" version="1.1">
<g id="surface1">
<path style="fill-rule:evenodd;fill:rgb(100%,100%,100%);fill-opacity:1;stroke-width:9.6;stroke-linecap:square;stroke-linejoin:bevel;stroke:rgb(100%,100%,100%);stroke-opacity:1;stroke-miterlimit:4;" d="M 2.889374 0.000938416 L 292.811249 0.000938416 C 294.39328 0.000938416 295.682343 1.290001 295.682343 2.872032 L 295.682343 312.012657 C 295.682343 313.594688 294.39328 314.883751 292.811249 314.883751 L 2.889374 314.883751 C 1.307343 314.883751 0.01828 313.594688 0.01828 312.012657 L 0.01828 2.872032 C 0.01828 1.290001 1.307343 0.000938416 2.889374 0.000938416 Z M 2.889374 0.000938416 " transform="matrix(0.0666667,0,0,0.0666667,8.448,1.664)"/>
<path style="fill:none;stroke-width:9.6;stroke-linecap:square;stroke-linejoin:bevel;stroke:rgb(100%,100%,100%);stroke-opacity:1;stroke-miterlimit:4;" d="M 0.343124 -0.0276489 L 0.694687 -0.0276489 L -0.00843811 -0.0276489 Z M 0.343124 -0.0276489 " transform="matrix(0.0666667,0,0,0.0666667,5.024,20.912)"/>
<path style="fill-rule:evenodd;fill:rgb(100%,100%,100%);fill-opacity:1;stroke-width:9.6;stroke-linecap:square;stroke-linejoin:bevel;stroke:rgb(100%,100%,100%);stroke-opacity:1;stroke-miterlimit:4;" d="M 2.872498 0.00842285 L 349.454529 0.00842285 C 351.03656 0.00842285 352.325623 1.297485 352.325623 2.879517 L 352.325623 105.12561 C 352.325623 106.707642 351.03656 107.996704 349.454529 107.996704 L 2.872498 107.996704 C 1.290466 107.996704 0.00140381 106.707642 0.00140381 105.12561 L 0.00140381 2.879517 C 0.00140381 1.297485 1.290466 0.00842285 2.872498 0.00842285 Z M 2.872498 0.00842285 " transform="matrix(0.0666667,0,0,0.0666667,4.496,20.976001)"/>
<path style="fill-rule:evenodd;fill:rgb(100%,100%,100%);fill-opacity:1;stroke-width:9.6;stroke-linecap:square;stroke-linejoin:bevel;stroke:rgb(100%,100%,100%);stroke-opacity:1;stroke-miterlimit:4;" d="M 2.888435 -0.0262451 L 40.564217 -0.0262451 C 42.146248 -0.0262451 43.43531 1.262817 43.43531 2.903442 L 43.43531 57.571411 C 43.43531 59.212036 42.146248 60.501099 40.564217 60.501099 L 2.888435 60.501099 C 1.306404 60.501099 0.0173416 59.212036 0.0173416 57.571411 L 0.0173416 2.903442 C 0.0173416 1.262817 1.306404 -0.0262451 2.888435 -0.0262451 Z M 2.888435 -0.0262451 " transform="matrix(0.0666667,0,0,0.0666667,4.784,23.408)"/>
<path style="fill-rule:evenodd;fill:rgb(8.235294%,14.117648%,21.176471%);fill-opacity:1;stroke-width:14.4624;stroke-linecap:square;stroke-linejoin:bevel;stroke:rgb(8.235294%,14.117648%,21.176471%);stroke-opacity:1;stroke-miterlimit:4;" d="M 12.009029 0.0102597 C 18.636676 0.0102597 24.005583 6.235113 24.005583 13.905738 L 24.005583 84.94938 C 24.005583 92.660166 18.636676 98.885018 12.009029 98.885018 C 5.381383 98.885018 0.0124763 92.660166 0.0124763 84.94938 L 0.0124763 13.905738 C 0.0124763 6.235113 5.381383 0.0102597 12.009029 0.0102597 Z M 12.009029 0.0102597 " transform="matrix(0.152062,0,0,0.0972664,16.416072,4.99119)"/>
<path style="fill-rule:evenodd;fill:rgb(8.235294%,14.117648%,21.176471%);fill-opacity:1;stroke-width:8.9424;stroke-linecap:square;stroke-linejoin:bevel;stroke:rgb(8.235294%,14.117648%,21.176471%);stroke-opacity:1;stroke-miterlimit:4;" d="M 8.866462 -0.00101966 L 59.770221 -0.00101966 C 64.664813 -0.00101966 68.6588 2.1525 68.6588 4.815034 C 68.6588 7.438413 64.664813 9.591933 59.770221 9.591933 L 8.866462 9.591933 C 3.97187 9.591933 0.0170393 7.438413 0.0170393 4.815034 C 0.0170393 2.1525 3.97187 -0.00101966 8.866462 -0.00101966 Z M 8.866462 -0.00101966 " transform="matrix(0.0997593,0,0,0.099764,14.720956,19.308695)"/>
<path style="fill-rule:evenodd;fill:rgb(8.235294%,14.117648%,21.176471%);fill-opacity:1;stroke-width:8.9424;stroke-linecap:square;stroke-linejoin:bevel;stroke:rgb(8.235294%,14.117648%,21.176471%);stroke-opacity:1;stroke-miterlimit:4;" d="M 3.705696 0.00575088 C 5.781003 0.00575088 7.425586 3.960397 7.425586 8.893915 L 7.425586 15.589405 C 7.425586 20.522924 5.781003 24.477569 3.705696 24.477569 C 1.669545 24.477569 -0.0141943 20.522924 -0.0141943 15.589405 L -0.0141943 8.893915 C -0.0141943 3.960397 1.669545 0.00575088 3.705696 0.00575088 Z M 3.705696 0.00575088 " transform="matrix(0.0997593,0,0,0.099764,17.833447,17.05802)"/>
<path style="fill-rule:evenodd;fill:rgb(8.235294%,14.117648%,21.176471%);fill-opacity:1;stroke-width:8.9424;stroke-linecap:square;stroke-linejoin:bevel;stroke:rgb(8.235294%,14.117648%,21.176471%);stroke-opacity:1;stroke-miterlimit:4;" d="M 6.626715 0.0129551 C 10.267157 -0.0314457 13.170996 3.985752 13.193934 8.888333 L 13.186782 36.722087 C 13.20972 41.624668 10.274644 45.612411 6.633865 45.584715 C 2.924742 45.631314 0.020903 41.614116 -0.00203551 36.711535 L 0.00511713 8.877781 C -0.0178214 3.9752 2.985936 -0.014741 6.626715 0.0129551 Z M 6.626715 0.0129551 " transform="matrix(0.0568666,0.00173373,-0.000266071,0.0541725,12.873165,10.714372)"/>
<path style="fill-rule:evenodd;fill:rgb(8.235294%,14.117648%,21.176471%);fill-opacity:1;stroke-width:8.9424;stroke-linecap:square;stroke-linejoin:bevel;stroke:rgb(8.235294%,14.117648%,21.176471%);stroke-opacity:1;stroke-miterlimit:4;" d="M 6.575026 0.0146093 C 10.215467 -0.0297914 13.187987 3.985208 13.210926 8.887789 L 13.203773 36.721543 C 13.226712 41.624124 10.222954 45.614065 6.582175 45.586369 C 2.941733 45.63077 -0.0307868 41.61577 0.0149559 36.710991 L 0.0221086 8.877237 C -0.000829937 3.974656 2.934246 -0.0130867 6.575026 0.0146093 Z M 6.575026 0.0146093 " transform="matrix(0.0568666,0.00173373,-0.000266071,0.0541725,22.833136,10.714372)"/>
<path style="fill:none;stroke-width:12.8832;stroke-linecap:square;stroke-linejoin:bevel;stroke:rgb(8.235294%,14.117648%,21.176471%);stroke-opacity:1;stroke-miterlimit:4;" d="M 0.0163594 -0.00239732 C 0.00154053 26.342901 22.867136 48.347352 49.062638 48.360197 " transform="matrix(0.0975242,0.000697901,-0.0006865,0.0972663,13.244497,12.398659)"/>
<path style="fill:none;stroke-width:12.8832;stroke-linecap:square;stroke-linejoin:bevel;stroke:rgb(8.235294%,14.117648%,21.176471%);stroke-opacity:1;stroke-miterlimit:4;" d="M 0.0159214 -0.00239417 C 0.00110246 26.342904 22.866698 48.347355 49.0622 48.3602 " transform="matrix(-0.0975242,0.000697901,0.0006865,0.0972663,23.212492,12.398659)"/>
<path style="fill-rule:evenodd;fill:rgb(6.666667%,59.607846%,75.686276%);fill-opacity:1;stroke-width:9.6;stroke-linecap:square;stroke-linejoin:bevel;stroke:rgb(6.666667%,59.607846%,75.686276%);stroke-opacity:1;stroke-miterlimit:4;" d="M 4.335056 0.00413727 L 40.555038 0.00413727 C 42.943599 0.00413727 44.86228 1.922728 44.86228 4.311177 L 44.86228 194.173335 C 44.86228 196.561784 42.943599 198.480375 40.555038 198.480375 L 4.335056 198.480375 C 1.946495 198.480375 -0.0113417 196.561784 -0.0113417 194.173335 L -0.0113417 4.311177 C -0.0113417 1.922728 1.946495 0.00413727 4.335056 0.00413727 Z M 4.335056 0.00413727 " transform="matrix(0.0997593,0,0,0.099764,3.923006,2.644118)"/>
<path style="fill-rule:evenodd;fill:rgb(6.666667%,59.607846%,75.686276%);fill-opacity:1;stroke-width:9.6;stroke-linecap:square;stroke-linejoin:bevel;stroke:rgb(6.666667%,59.607846%,75.686276%);stroke-opacity:1;stroke-miterlimit:4;" d="M 4.339459 -0.0155766 L 17.535279 -0.0155766 C 19.92384 -0.0155766 21.84252 1.942169 21.84252 4.330618 L 21.84252 7.697941 C 21.84252 10.047235 19.92384 12.004981 17.535279 12.004981 L 4.339459 12.004981 C 1.950898 12.004981 -0.0069391 10.047235 -0.0069391 7.697941 L -0.0069391 4.330618 C -0.0069391 1.942169 1.950898 -0.0155766 4.339459 -0.0155766 Z M 4.339459 -0.0155766 " transform="matrix(0.0997593,0,0,0.099764,6.125692,1.997648)"/>
<path style="fill-rule:evenodd;fill:rgb(6.666667%,59.607846%,75.686276%);fill-opacity:1;stroke-width:9.6;stroke-linecap:square;stroke-linejoin:bevel;stroke:rgb(6.666667%,59.607846%,75.686276%);stroke-opacity:1;stroke-miterlimit:4;" d="M 4.333738 0.00966637 L 7.936158 0.00966637 C 10.324719 0.00966637 12.243399 1.928257 12.243399 4.316706 L 12.243399 8.153888 C 12.243399 10.542337 10.324719 12.460928 7.936158 12.460928 L 4.333738 12.460928 C 1.945177 12.460928 -0.0126597 10.542337 -0.0126597 8.153888 L -0.0126597 4.316706 C -0.0126597 1.928257 1.945177 0.00966637 4.333738 0.00966637 Z M 4.333738 0.00966637 " transform="matrix(0.0997593,0,0,0.099764,4.114544,21.846692)"/>
<path style=" stroke:none;fill-rule:evenodd;fill:rgb(6.666667%,59.607846%,75.686276%);fill-opacity:1;" d="M 24.488281 1.421875 L 28.273438 4.824219 Z M 24.488281 1.421875 "/>
<path style=" stroke:none;fill-rule:evenodd;fill:rgb(6.666667%,59.607846%,75.686276%);fill-opacity:1;" d="M 24.117188 1.566406 L 28.210938 5.515625 Z M 24.117188 1.566406 "/>
<path style=" stroke:none;fill-rule:evenodd;fill:rgb(6.666667%,59.607846%,75.686276%);fill-opacity:1;" d="M 28.140625 1.566406 L 28.175781 6.09375 L 23.6875 1.636719 Z M 28.140625 1.566406 "/>
<path style=" stroke:none;fill-rule:evenodd;fill:rgb(6.666667%,59.607846%,75.686276%);fill-opacity:1;" d="M 24.117188 22.851562 L 28.210938 18.902344 Z M 24.117188 22.851562 "/>
<path style=" stroke:none;fill-rule:evenodd;fill:rgb(6.666667%,59.607846%,75.686276%);fill-opacity:1;" d="M 28.140625 22.851562 L 28.175781 18.328125 L 23.6875 22.78125 Z M 28.140625 22.851562 "/>
<path style="fill:none;stroke-width:9.6;stroke-linecap:square;stroke-linejoin:miter;stroke:rgb(8.235294%,14.117648%,21.176471%);stroke-opacity:1;stroke-miterlimit:2;" d="M -0.00462947 -0.00148615 L 44.281641 44.987505 " transform="matrix(0.0997593,0,0,0.099764,23.902806,1.746242)"/>
<path style="fill:none;stroke-width:9.6;stroke-linecap:square;stroke-linejoin:miter;stroke:rgb(8.235294%,14.117648%,21.176471%);stroke-opacity:1;stroke-miterlimit:2;" d="M -0.0185791 42.250513 L 41.76166 0.00236561 " transform="matrix(0.0997593,0,0,0.099764,24.154197,18.183358)"/>
<path style="fill-rule:evenodd;fill:rgb(8.235294%,14.117648%,21.176471%);fill-opacity:1;stroke-width:9.6;stroke-linecap:square;stroke-linejoin:bevel;stroke:rgb(8.235294%,14.117648%,21.176471%);stroke-opacity:1;stroke-miterlimit:4;" d="M 4.303435 0.0182448 L 143.26133 0.0182448 C 145.683168 0.0182448 147.588876 0.649796 147.588876 1.44976 C 147.588876 2.249724 145.683168 2.881275 143.26133 2.881275 L 4.303435 2.881275 C 1.9213 2.881275 0.0155914 2.249724 0.0155914 1.44976 C 0.0155914 0.649796 1.9213 0.0182448 4.303435 0.0182448 Z M 4.303435 0.0182448 " transform="matrix(0.0983886,0,0,0.0927776,11.834403,24.709245)"/>
<path style="fill-rule:evenodd;fill:rgb(8.235294%,14.117648%,21.176471%);fill-opacity:1;stroke-width:9.6;stroke-linecap:square;stroke-linejoin:bevel;stroke:rgb(8.235294%,14.117648%,21.176471%);stroke-opacity:1;stroke-miterlimit:4;" d="M 4.303435 0.0155256 L 143.26133 0.0155256 C 145.683168 0.0155256 147.588876 0.647076 147.588876 1.447041 C 147.588876 2.247005 145.683168 2.878556 143.26133 2.878556 L 4.303435 2.878556 C 1.9213 2.878556 0.0155914 2.247005 0.0155914 1.447041 C 0.0155914 0.647076 1.9213 0.0155256 4.303435 0.0155256 Z M 4.303435 0.0155256 " transform="matrix(0.0983886,0,0,0.0927776,11.834403,26.385278)"/>
<path style="fill:none;stroke-width:14.4624;stroke-linecap:square;stroke-linejoin:bevel;stroke:rgb(8.235294%,14.117648%,21.176471%);stroke-opacity:1;stroke-miterlimit:4;" d="M 4.32079 -0.0112178 L 204.712938 -0.0112178 C 207.119928 -0.0112178 209.037361 1.922134 209.037361 4.328961 L 209.037361 215.774563 C 209.037361 218.141933 207.119928 220.075285 204.712938 220.075285 L 4.32079 220.075285 C 1.9138 220.075285 -0.00363343 218.141933 -0.00363343 215.774563 L -0.00363343 4.328961 C -0.00363343 1.922134 1.9138 -0.0112178 4.32079 -0.0112178 Z M 4.32079 -0.0112178 " transform="matrix(0.0957498,0,0,0.0990023,8.488629,1.255017)"/>
<path style="fill:none;stroke-width:14.4624;stroke-linecap:square;stroke-linejoin:bevel;stroke:rgb(8.235294%,14.117648%,21.176471%);stroke-opacity:1;stroke-miterlimit:4;" d="M 41.672176 -0.00672975 C -5.66832 -0.00672975 -14.204489 54.731834 24.012487 54.731834 " transform="matrix(0.0997593,0,0,0.099764,3.620155,22.863953)"/>
<path style="fill:none;stroke-width:3.7512;stroke-linecap:square;stroke-linejoin:bevel;stroke:rgb(8.235294%,14.117648%,21.176471%);stroke-opacity:1;stroke-miterlimit:4;" d="M 33.344731 -0.0000611795 C 22.380844 -0.0000611795 11.064547 0.274023 -0.0168099 0.274023 " transform="matrix(0.0997593,0,0,0.099764,6.005583,23.378912)"/>
<path style="fill:none;stroke-width:14.4624;stroke-linecap:square;stroke-linejoin:bevel;stroke:rgb(8.235294%,14.117648%,21.176471%);stroke-opacity:1;stroke-miterlimit:4;" d="M 48.477209 0.237238 L 37.697897 0.00493788 L 28.093774 1.437452 L 21.366835 3.102267 L 13.221565 6.006013 L 9.614954 8.406442 L 4.063203 13.439602 L 0.942876 19.208377 L 0.0108301 31.907425 L 0.456591 239.505894 " transform="matrix(0.0963941,0,0,0.100893,3.561456,1.300283)"/>
<path style="fill-rule:evenodd;fill:rgb(8.235294%,14.117648%,21.176471%);fill-opacity:1;stroke-width:9.9936;stroke-linecap:square;stroke-linejoin:bevel;stroke:rgb(8.235294%,14.117648%,21.176471%);stroke-opacity:1;stroke-miterlimit:4;" d="M 4.332962 0.0165791 L 198.708916 0.0165791 C 201.096657 0.0165791 203.034533 0.737574 203.034533 1.674867 C 203.034533 2.612159 201.096657 3.369204 198.708916 3.369204 L 4.332962 3.369204 C 1.945221 3.369204 0.00734454 2.612159 0.00734454 1.674867 C 0.00734454 0.737574 1.945221 0.0165791 4.332962 0.0165791 Z M 4.332962 0.0165791 " transform="matrix(0.112881,0,0,0.108357,5.581202,28.134922)"/>
<path style=" stroke:none;fill-rule:evenodd;fill:rgb(6.666667%,59.607846%,75.686276%);fill-opacity:1;" d="M 5.828125 25.503906 L 6.210938 25.433594 Z M 5.828125 25.503906 "/>
<path style=" stroke:none;fill-rule:evenodd;fill:rgb(6.666667%,59.607846%,75.686276%);fill-opacity:1;" d="M 5.910156 25.480469 L 5.902344 31.921875 L 7.960938 29.492188 L 7.945312 25.503906 Z M 5.910156 25.480469 "/>
<path style=" stroke:none;fill-rule:evenodd;fill:rgb(6.666667%,59.607846%,75.686276%);fill-opacity:1;" d="M 10.039062 25.503906 L 9.65625 25.433594 Z M 10.039062 25.503906 "/>
<path style=" stroke:none;fill-rule:evenodd;fill:rgb(6.666667%,59.607846%,75.686276%);fill-opacity:1;" d="M 9.957031 25.480469 L 9.964844 31.921875 L 7.90625 29.492188 L 7.921875 25.503906 Z M 9.957031 25.480469 "/>
</g>
</svg>
