<?xml version="1.0" encoding="UTF-8"?>
<svg xmlns="http://www.w3.org/2000/svg" xmlns:xlink="http://www.w3.org/1999/xlink" width="48px" height="48px" viewBox="0 0 48 48" version="1.1">
<g id="surface1">
<path style="fill-rule:evenodd;fill:rgb(100%,100%,100%);fill-opacity:1;stroke-width:9.6;stroke-linecap:square;stroke-linejoin:bevel;stroke:rgb(100%,100%,100%);stroke-opacity:1;stroke-miterlimit:4;" d="M 2.889374 0.000938416 L 292.811249 0.000938416 C 294.373749 0.000938416 295.662811 1.290001 295.662811 2.891563 L 295.662811 311.993126 C 295.662811 313.594688 294.373749 314.883751 292.811249 314.883751 L 2.889374 314.883751 C 1.287811 314.883751 -0.00125122 313.594688 -0.00125122 311.993126 L -0.00125122 2.891563 C -0.00125122 1.290001 1.287811 0.000938416 2.889374 0.000938416 Z M 2.889374 0.000938416 " transform="matrix(0.1,0,0,0.1,12.672,2.496)"/>
<path style="fill:none;stroke-width:9.6;stroke-linecap:square;stroke-linejoin:bevel;stroke:rgb(100%,100%,100%);stroke-opacity:1;stroke-miterlimit:4;" d="M 0.343124 -0.00811768 L 0.733749 -0.00811768 L -0.00843811 -0.00811768 Z M 0.343124 -0.00811768 " transform="matrix(0.1,0,0,0.1,7.536,31.367999)"/>
<path style="fill-rule:evenodd;fill:rgb(100%,100%,100%);fill-opacity:1;stroke-width:9.6;stroke-linecap:square;stroke-linejoin:bevel;stroke:rgb(100%,100%,100%);stroke-opacity:1;stroke-miterlimit:4;" d="M 2.872498 0.00842285 L 349.434998 0.00842285 C 351.03656 0.00842285 352.325623 1.297485 352.325623 2.899048 L 352.325623 105.12561 C 352.325623 106.727173 351.03656 108.016235 349.434998 108.016235 L 2.872498 108.016235 C 1.270935 108.016235 -0.0181274 106.727173 -0.0181274 105.12561 L -0.0181274 2.899048 C -0.0181274 1.297485 1.270935 0.00842285 2.872498 0.00842285 Z M 2.872498 0.00842285 " transform="matrix(0.1,0,0,0.1,6.744,31.464001)"/>
<path style="fill-rule:evenodd;fill:rgb(100%,100%,100%);fill-opacity:1;stroke-width:9.6;stroke-linecap:square;stroke-linejoin:bevel;stroke:rgb(100%,100%,100%);stroke-opacity:1;stroke-miterlimit:4;" d="M 2.888435 0.0128174 L 40.544685 0.0128174 C 42.146248 0.0128174 43.43531 1.30188 43.43531 2.86438 L 43.43531 57.590942 C 43.43531 59.192505 42.146248 60.481567 40.544685 60.481567 L 2.888435 60.481567 C 1.286873 60.481567 -0.00218964 59.192505 -0.00218964 57.590942 L -0.00218964 2.86438 C -0.00218964 1.30188 1.286873 0.0128174 2.888435 0.0128174 Z M 2.888435 0.0128174 " transform="matrix(0.1,0,0,0.1,7.176,35.112)"/>
<path style="fill-rule:evenodd;fill:rgb(8.235294%,14.117648%,21.176471%);fill-opacity:1;stroke-width:14.4624;stroke-linecap:square;stroke-linejoin:bevel;stroke:rgb(8.235294%,14.117648%,21.176471%);stroke-opacity:1;stroke-miterlimit:4;" d="M 11.991904 0.0102597 C 18.61955 0.0102597 23.99702 6.221726 23.99702 13.932511 L 23.99702 84.962767 C 23.99702 92.646779 18.61955 98.885018 11.991904 98.885018 C 5.364258 98.885018 0.00391349 92.646779 0.00391349 84.962767 L 0.00391349 13.932511 C 0.00391349 6.221726 5.364258 0.0102597 11.991904 0.0102597 Z M 11.991904 0.0102597 " transform="matrix(0.228093,0,0,0.1459,24.624107,7.486784)"/>
<path style="fill-rule:evenodd;fill:rgb(8.235294%,14.117648%,21.176471%);fill-opacity:1;stroke-width:8.9424;stroke-linecap:square;stroke-linejoin:bevel;stroke:rgb(8.235294%,14.117648%,21.176471%);stroke-opacity:1;stroke-miterlimit:4;" d="M 8.879514 0.012032 L 59.757169 0.012032 C 64.664813 0.012032 68.632696 2.1525 68.632696 4.788931 C 68.632696 7.451465 64.664813 9.591933 59.757169 9.591933 L 8.879514 9.591933 C 3.97187 9.591933 0.00398705 7.451465 0.00398705 4.788931 C 0.00398705 2.1525 3.97187 0.012032 8.879514 0.012032 Z M 8.879514 0.012032 " transform="matrix(0.149639,0,0,0.149646,22.081435,28.963043)"/>
<path style="fill-rule:evenodd;fill:rgb(8.235294%,14.117648%,21.176471%);fill-opacity:1;stroke-width:8.9424;stroke-linecap:square;stroke-linejoin:bevel;stroke:rgb(8.235294%,14.117648%,21.176471%);stroke-opacity:1;stroke-miterlimit:4;" d="M 3.7318 -0.00730076 C 5.767951 -0.00730076 7.438638 3.9865 7.438638 8.867812 L 7.438638 15.602457 C 7.438638 20.509872 5.767951 24.477569 3.7318 24.477569 C 1.669545 24.477569 -0.00114207 20.509872 -0.00114207 15.602457 L -0.00114207 8.867812 C -0.00114207 3.9865 1.669545 -0.00730076 3.7318 -0.00730076 Z M 3.7318 -0.00730076 " transform="matrix(0.149639,0,0,0.149646,26.750171,25.58703)"/>
<path style="fill-rule:evenodd;fill:rgb(8.235294%,14.117648%,21.176471%);fill-opacity:1;stroke-width:8.9424;stroke-linecap:square;stroke-linejoin:bevel;stroke:rgb(8.235294%,14.117648%,21.176471%);stroke-opacity:1;stroke-miterlimit:4;" d="M 6.580928 0.0144204 C 10.244376 -0.0066807 13.19389 3.985019 13.216828 8.887601 L 13.209676 36.721354 C 13.186827 41.625401 10.228856 45.613876 6.610971 45.585448 C 2.947523 45.606549 -0.00199074 41.614849 0.0208582 36.710802 L -0.0177766 8.878514 C 0.00507236 3.974467 2.963042 -0.0140083 6.580928 0.0144204 Z M 6.580928 0.0144204 " transform="matrix(0.0852999,0.0026006,-0.000399106,0.0812588,19.309747,16.071558)"/>
<path style="fill-rule:evenodd;fill:rgb(8.235294%,14.117648%,21.176471%);fill-opacity:1;stroke-width:8.9424;stroke-linecap:square;stroke-linejoin:bevel;stroke:rgb(8.235294%,14.117648%,21.176471%);stroke-opacity:1;stroke-miterlimit:4;" d="M 6.597919 0.0138767 C 10.261367 -0.0072245 13.210881 3.984476 13.188032 8.888522 L 13.18088 36.722276 C 13.203818 41.624857 10.245848 45.613332 6.582175 45.586369 C 2.964515 45.606005 0.0150007 41.614305 -0.0079378 36.711724 L -0.000785163 8.87797 C 0.0220638 3.973924 2.934246 -0.0130867 6.597919 0.0138767 Z M 6.597919 0.0138767 " transform="matrix(0.0852999,0.0026006,-0.000399106,0.0812588,34.249704,16.071558)"/>
<path style="fill:none;stroke-width:12.8832;stroke-linecap:square;stroke-linejoin:bevel;stroke:rgb(8.235294%,14.117648%,21.176471%);stroke-opacity:1;stroke-miterlimit:4;" d="M 0.00300872 -0.00230152 C 0.00135207 26.316129 22.880676 48.374029 49.049381 48.373679 " transform="matrix(0.146286,0.00104685,-0.00102975,0.145899,19.866745,18.597989)"/>
<path style="fill:none;stroke-width:12.8832;stroke-linecap:square;stroke-linejoin:bevel;stroke:rgb(8.235294%,14.117648%,21.176471%);stroke-opacity:1;stroke-miterlimit:4;" d="M -0.0107801 -0.00220259 C -0.0124367 26.316228 22.866887 48.374128 49.035593 48.373778 " transform="matrix(-0.146286,0.00104685,0.00102975,0.145899,34.818738,18.597989)"/>
<path style="fill-rule:evenodd;fill:rgb(6.666667%,59.607846%,75.686276%);fill-opacity:1;stroke-width:9.6;stroke-linecap:square;stroke-linejoin:bevel;stroke:rgb(6.666667%,59.607846%,75.686276%);stroke-opacity:1;stroke-miterlimit:4;" d="M 4.322004 -0.00891437 L 40.555038 -0.00891437 C 42.956652 -0.00891437 44.888384 1.922728 44.888384 4.324229 L 44.888384 194.147231 C 44.888384 196.548732 42.956652 198.480375 40.555038 198.480375 L 4.322004 198.480375 C 1.946495 198.480375 -0.0113417 196.548732 -0.0113417 194.147231 L -0.0113417 4.324229 C -0.0113417 1.922728 1.946495 -0.00891437 4.322004 -0.00891437 Z M 4.322004 -0.00891437 " transform="matrix(0.149639,0,0,0.149646,5.88451,3.966178)"/>
<path style="fill-rule:evenodd;fill:rgb(6.666667%,59.607846%,75.686276%);fill-opacity:1;stroke-width:9.6;stroke-linecap:square;stroke-linejoin:bevel;stroke:rgb(6.666667%,59.607846%,75.686276%);stroke-opacity:1;stroke-miterlimit:4;" d="M 4.326407 -0.00252493 L 17.509175 -0.00252493 C 19.910788 -0.00252493 21.84252 1.929117 21.84252 4.330618 L 21.84252 7.671837 C 21.84252 10.073339 19.910788 12.004981 17.509175 12.004981 L 4.326407 12.004981 C 1.924793 12.004981 -0.0069391 10.073339 -0.0069391 7.671837 L -0.0069391 4.330618 C -0.0069391 1.929117 1.924793 -0.00252493 4.326407 -0.00252493 Z M 4.326407 -0.00252493 " transform="matrix(0.149639,0,0,0.149646,9.188538,2.996472)"/>
<path style="fill-rule:evenodd;fill:rgb(6.666667%,59.607846%,75.686276%);fill-opacity:1;stroke-width:9.6;stroke-linecap:square;stroke-linejoin:bevel;stroke:rgb(6.666667%,59.607846%,75.686276%);stroke-opacity:1;stroke-miterlimit:4;" d="M 4.307634 -0.00338527 L 7.910054 -0.00338527 C 10.311667 -0.00338527 12.243399 1.928257 12.243399 4.329758 L 12.243399 8.166939 C 12.243399 10.542337 10.311667 12.473979 7.910054 12.473979 L 4.307634 12.473979 C 1.932125 12.473979 0.000392587 10.542337 0.000392587 8.166939 L 0.000392587 4.329758 C 0.000392587 1.928257 1.932125 -0.00338527 4.307634 -0.00338527 Z M 4.307634 -0.00338527 " transform="matrix(0.149639,0,0,0.149646,6.171816,32.770038)"/>
<path style=" stroke:none;fill-rule:evenodd;fill:rgb(6.666667%,59.607846%,75.686276%);fill-opacity:1;" d="M 36.734375 2.132812 L 42.410156 7.234375 Z M 36.734375 2.132812 "/>
<path style=" stroke:none;fill-rule:evenodd;fill:rgb(6.666667%,59.607846%,75.686276%);fill-opacity:1;" d="M 36.175781 2.351562 L 42.320312 8.277344 Z M 36.175781 2.351562 "/>
<path style=" stroke:none;fill-rule:evenodd;fill:rgb(6.666667%,59.607846%,75.686276%);fill-opacity:1;" d="M 42.210938 2.351562 L 42.265625 9.136719 L 35.53125 2.457031 Z M 42.210938 2.351562 "/>
<path style=" stroke:none;fill-rule:evenodd;fill:rgb(6.666667%,59.607846%,75.686276%);fill-opacity:1;" d="M 36.175781 34.277344 L 42.320312 28.351562 Z M 36.175781 34.277344 "/>
<path style=" stroke:none;fill-rule:evenodd;fill:rgb(6.666667%,59.607846%,75.686276%);fill-opacity:1;" d="M 42.210938 34.277344 L 42.265625 27.492188 L 35.53125 34.171875 Z M 42.210938 34.277344 "/>
<path style="fill:none;stroke-width:9.6;stroke-linecap:square;stroke-linejoin:miter;stroke:rgb(8.235294%,14.117648%,21.176471%);stroke-opacity:1;stroke-miterlimit:2;" d="M 0.00842278 0.0115655 L 44.281641 44.987505 " transform="matrix(0.149639,0,0,0.149646,35.854208,2.619363)"/>
<path style="fill:none;stroke-width:9.6;stroke-linecap:square;stroke-linejoin:miter;stroke:rgb(8.235294%,14.117648%,21.176471%);stroke-opacity:1;stroke-miterlimit:2;" d="M -0.00552681 42.250513 L 41.76166 -0.010686 " transform="matrix(0.149639,0,0,0.149646,36.231296,27.275037)"/>
<path style="fill-rule:evenodd;fill:rgb(8.235294%,14.117648%,21.176471%);fill-opacity:1;stroke-width:9.6;stroke-linecap:square;stroke-linejoin:bevel;stroke:rgb(8.235294%,14.117648%,21.176471%);stroke-opacity:1;stroke-miterlimit:4;" d="M 4.329903 -0.00982412 L 143.287798 -0.00982412 C 145.669933 -0.00982412 147.60211 0.635761 147.60211 1.44976 C 147.60211 2.23569 145.669933 2.881275 143.287798 2.881275 L 4.329903 2.881275 C 1.9213 2.881275 -0.0108768 2.23569 -0.0108768 1.44976 C -0.0108768 0.635761 1.9213 -0.00982412 4.329903 -0.00982412 Z M 4.329903 -0.00982412 " transform="matrix(0.147583,0,0,0.139166,17.751605,37.063867)"/>
<path style="fill-rule:evenodd;fill:rgb(8.235294%,14.117648%,21.176471%);fill-opacity:1;stroke-width:9.6;stroke-linecap:square;stroke-linejoin:bevel;stroke:rgb(8.235294%,14.117648%,21.176471%);stroke-opacity:1;stroke-miterlimit:4;" d="M 4.329903 0.00149116 L 143.287798 0.00149116 C 145.669933 0.00149116 147.60211 0.647076 147.60211 1.433006 C 147.60211 2.247005 145.669933 2.89259 143.287798 2.89259 L 4.329903 2.89259 C 1.9213 2.89259 -0.0108768 2.247005 -0.0108768 1.433006 C -0.0108768 0.647076 1.9213 0.00149116 4.329903 0.00149116 Z M 4.329903 0.00149116 " transform="matrix(0.147583,0,0,0.139166,17.751605,39.577917)"/>
<path style="fill:none;stroke-width:14.4624;stroke-linecap:square;stroke-linejoin:bevel;stroke:rgb(8.235294%,14.117648%,21.176471%);stroke-opacity:1;stroke-miterlimit:4;" d="M 4.307191 0.00193428 L 204.726537 0.00193428 C 207.092731 0.00193428 209.05096 1.922134 209.05096 4.315809 L 209.05096 215.748259 C 209.05096 218.141933 207.092731 220.088437 204.726537 220.088437 L 4.307191 220.088437 C 1.940997 220.088437 0.00996538 218.141933 0.00996538 215.748259 L 0.00996538 4.315809 C 0.00996538 1.922134 1.940997 0.00193428 4.307191 0.00193428 Z M 4.307191 0.00193428 " transform="matrix(0.143625,0,0,0.148503,12.732944,1.882525)"/>
<path style="fill:none;stroke-width:14.4624;stroke-linecap:square;stroke-linejoin:bevel;stroke:rgb(8.235294%,14.117648%,21.176471%);stroke-opacity:1;stroke-miterlimit:4;" d="M 41.659123 0.00632189 C -5.694425 0.00632189 -14.230593 54.718782 24.038591 54.718782 " transform="matrix(0.149639,0,0,0.149646,5.430233,34.295929)"/>
<path style="fill:none;stroke-width:3.7512;stroke-linecap:square;stroke-linejoin:bevel;stroke:rgb(8.235294%,14.117648%,21.176471%);stroke-opacity:1;stroke-miterlimit:4;" d="M 33.357783 0.0129905 C 22.367792 0.0129905 11.064547 0.24792 -0.00375762 0.24792 " transform="matrix(0.149639,0,0,0.149646,9.008375,35.068369)"/>
<path style="fill:none;stroke-width:14.4624;stroke-linecap:square;stroke-linejoin:bevel;stroke:rgb(8.235294%,14.117648%,21.176471%);stroke-opacity:1;stroke-miterlimit:4;" d="M 48.477209 0.250143 L 37.670882 -0.00796766 L 28.080266 1.437452 L 21.353327 3.115172 L 13.19455 6.006013 L 9.601446 8.406442 L 4.090219 13.439602 L 0.956384 19.195471 L 0.0108301 31.920331 L 0.470099 239.5188 " transform="matrix(0.144591,0,0,0.15134,5.342184,1.950425)"/>
<path style="fill-rule:evenodd;fill:rgb(8.235294%,14.117648%,21.176471%);fill-opacity:1;stroke-width:9.9936;stroke-linecap:square;stroke-linejoin:bevel;stroke:rgb(8.235294%,14.117648%,21.176471%);stroke-opacity:1;stroke-miterlimit:4;" d="M 4.309892 0.00456254 L 198.720451 0.00456254 C 201.096657 0.00456254 203.034533 0.74959 203.034533 1.686883 C 203.034533 2.600143 201.096657 3.369204 198.720451 3.369204 L 4.309892 3.369204 C 1.933686 3.369204 -0.00419044 2.600143 -0.00419044 1.686883 C -0.00419044 0.74959 1.933686 0.00456254 4.309892 0.00456254 Z M 4.309892 0.00456254 " transform="matrix(0.169322,0,0,0.162536,8.371803,42.202383)"/>
<path style=" stroke:none;fill-rule:evenodd;fill:rgb(6.666667%,59.607846%,75.686276%);fill-opacity:1;" d="M 8.742188 38.257812 L 9.316406 38.148438 Z M 8.742188 38.257812 "/>
<path style=" stroke:none;fill-rule:evenodd;fill:rgb(6.666667%,59.607846%,75.686276%);fill-opacity:1;" d="M 8.867188 38.222656 L 8.855469 47.882812 L 11.941406 44.234375 L 11.917969 38.253906 Z M 8.867188 38.222656 "/>
<path style=" stroke:none;fill-rule:evenodd;fill:rgb(6.666667%,59.607846%,75.686276%);fill-opacity:1;" d="M 15.058594 38.257812 L 14.484375 38.148438 Z M 15.058594 38.257812 "/>
<path style=" stroke:none;fill-rule:evenodd;fill:rgb(6.666667%,59.607846%,75.686276%);fill-opacity:1;" d="M 14.933594 38.222656 L 14.945312 47.882812 L 11.859375 44.234375 L 11.878906 38.253906 Z M 14.933594 38.222656 "/>
</g>
</svg>
