<?xml version="1.0" standalone="no"?>
<!DOCTYPE svg PUBLIC "-//W3C//DTD SVG 20010904//EN" "http://www.w3.org/TR/2001/REC-SVG-20010904/DTD/svg10.dtd">
<!-- Created using Krita: https://krita.org -->
<svg xmlns="http://www.w3.org/2000/svg" 
    xmlns:xlink="http://www.w3.org/1999/xlink"
    xmlns:krita="http://krita.org/namespaces/svg/krita"
    xmlns:sodipodi="http://sodipodi.sourceforge.net/DTD/sodipodi-0.dtd"
    width="480pt"
    height="480pt"
    viewBox="0 0 480 480">
<defs/>
<rect id="shape0" transform="translate(126.72, 24.96)" fill="#ffffff" fill-rule="evenodd" stroke="#ffffff" stroke-width="9.6" stroke-linecap="square" stroke-linejoin="bevel" width="295.68" height="314.88" rx="2.88" ry="2.88"/><rect id="shape1" transform="translate(75.36, 313.68)" fill="#ffffff" fill-rule="evenodd" stroke="#ffffff" stroke-width="9.6" stroke-linecap="square" stroke-linejoin="bevel" width="0.719999999999999" height="1e-06" rx="0.359999999999999" ry="5e-07"/><rect id="shape2" transform="translate(67.44, 314.64)" fill="#ffffff" fill-rule="evenodd" stroke="#ffffff" stroke-width="9.6" stroke-linecap="square" stroke-linejoin="bevel" width="352.32" height="108" rx="2.88" ry="2.88"/><rect id="shape3" transform="translate(71.76, 351.12)" fill="#ffffff" fill-rule="evenodd" stroke="#ffffff" stroke-width="9.6" stroke-linecap="square" stroke-linejoin="bevel" width="43.44" height="60.48" rx="2.88" ry="2.88"/><rect id="shape0" transform="matrix(2.28092863917308 0 0 1.45899537131704 246.241070260354 74.8678445642946)" fill="#152436" fill-rule="evenodd" stroke="#152436" stroke-width="14.4624" stroke-linecap="square" stroke-linejoin="bevel" width="24" height="98.88" rx="12" ry="13.92"/><rect id="shape1" transform="matrix(1.49639000572902 0 0 1.49645988051889 220.81434962791 289.630435241176)" fill="#152436" fill-rule="evenodd" stroke="#152436" stroke-width="8.9424" stroke-linecap="square" stroke-linejoin="bevel" width="68.64" height="9.59999999999997" rx="8.88" ry="4.79999999999998"/><rect id="shape2" transform="matrix(1.49639000572902 0 0 1.49645988051889 267.501717806655 255.870300336668)" fill="#152436" fill-rule="evenodd" stroke="#152436" stroke-width="8.9424" stroke-linecap="square" stroke-linejoin="bevel" width="7.44" height="24.48" rx="3.72" ry="8.88"/><rect id="shape01" transform="matrix(0.852998564984923 0.0260059751831262 -0.00399106484060177 0.812587990110572 193.097468235793 160.715570982802)" fill="#152436" fill-rule="evenodd" stroke="#152436" stroke-width="8.9424" stroke-linecap="square" stroke-linejoin="bevel" width="13.2" height="45.6" rx="6.6" ry="8.88"/><rect id="shape02" transform="matrix(0.852998564984923 0.0260059751831262 -0.00399106484060177 0.812587990110572 342.497046407779 160.715570982802)" fill="#152436" fill-rule="evenodd" stroke="#152436" stroke-width="8.9424" stroke-linecap="square" stroke-linejoin="bevel" width="13.2" height="45.6" rx="6.6" ry="8.88"/><path id="shape03" transform="matrix(1.46286352778319 0.0104685120356245 -0.0102975006532818 1.45899482218166 198.667446172418 185.979886736089)" fill="none" stroke="#152436" stroke-width="12.8832" stroke-linecap="square" stroke-linejoin="bevel" d="M0 0C0 26.3255 22.8676 48.3661 49.0449 48.3661"/><path id="shape04" transform="matrix(-1.46286352778319 0.0104685120356245 0.0102975006532818 1.45899482218166 348.187386965469 185.979886736089)" fill="none" stroke="#152436" stroke-width="12.8832" stroke-linecap="square" stroke-linejoin="bevel" d="M0 0C0 26.3255 22.8676 48.3661 49.0449 48.3661"/><rect id="shape05" transform="matrix(1.49639000572902 0 0 1.49645988051889 58.8450954078004 39.6617767992992)" fill="#1198c1" fill-rule="evenodd" stroke="#1198c1" stroke-width="9.6" stroke-linecap="square" stroke-linejoin="bevel" width="44.88" height="198.48" rx="4.32" ry="4.32"/><rect id="shape11" transform="matrix(1.49639000572902 0 0 1.49645988051889 91.8853867342974 29.9647167735365)" fill="#1198c1" fill-rule="evenodd" stroke="#1198c1" stroke-width="9.6" stroke-linecap="square" stroke-linejoin="bevel" width="21.84" height="12" rx="4.32" ry="4.32"/><rect id="shape21" transform="matrix(1.49639000572902 0 0 1.49645988051889 61.7181642188002 327.700374601575)" fill="#1198c1" fill-rule="evenodd" stroke="#1198c1" stroke-width="9.6" stroke-linecap="square" stroke-linejoin="bevel" width="12.24" height="12.48" rx="4.32" ry="4.32"/><path id="shape3" transform="matrix(1.49639000572902 0 0 1.49645988051889 367.340855312997 21.3451062582916)" fill="#1198c1" fill-rule="evenodd" stroke="#000000" stroke-opacity="0" stroke-width="0" stroke-linecap="square" stroke-linejoin="bevel" d="M0 0L37.92 34.08Z"/><path id="shape06" transform="matrix(1.49639000572902 0 0 1.49645988051889 361.774271453272 23.5000026243032)" fill="#1198c1" fill-rule="evenodd" stroke="#000000" stroke-opacity="0" stroke-width="0" stroke-linecap="square" stroke-linejoin="bevel" d="M0 0L41.04 39.6Z"/><path id="shape12" transform="matrix(1.49639000572902 0 0 1.49645988051889 355.309866874624 23.5000026243032)" fill="#1198c1" fill-rule="evenodd" stroke="#000000" stroke-opacity="0" stroke-width="0" stroke-linecap="square" stroke-linejoin="bevel" d="M44.64 0L45 45.36L0 0.72Z"/><path id="shape07" transform="matrix(1.49639000572902 0 0 -1.49645988051889 361.774271453272 342.784697662596)" fill="#1198c1" fill-rule="evenodd" stroke="#000000" stroke-opacity="0" stroke-width="0" stroke-linecap="square" stroke-linejoin="bevel" d="M0 0L41.04 39.6Z"/><path id="shape13" transform="matrix(1.49639000572902 0 0 -1.49645988051889 355.309866874624 342.784697662596)" fill="#1198c1" fill-rule="evenodd" stroke="#000000" stroke-opacity="0" stroke-width="0" stroke-linecap="square" stroke-linejoin="bevel" d="M44.64 0L45 45.36L0 0.72Z"/><path id="shape08" transform="matrix(1.49639000572902 0 0 1.49645988051889 358.542069163947 26.1936303066914)" fill="none" stroke="#152436" stroke-width="9.6" stroke-linecap="square" stroke-linejoin="miter" stroke-miterlimit="2" d="M0 0L44.28 45"/><path id="shape14" transform="matrix(1.49639000572902 0 0 1.49645988051889 362.312971834827 272.750367788921)" fill="none" stroke="#152436" stroke-width="9.6" stroke-linecap="square" stroke-linejoin="miter" stroke-miterlimit="2" d="M0 42.24L41.76 0"/><rect id="shape09" transform="matrix(1.47582924319639 0 0 1.39166356485049 177.516050101839 370.638662565086)" fill="#152436" fill-rule="evenodd" stroke="#152436" stroke-width="9.6" stroke-linecap="square" stroke-linejoin="bevel" width="147.6" height="2.88" rx="4.32" ry="1.44"/><rect id="shape010" transform="matrix(1.47582924319639 0 0 1.39166356485049 177.516050101839 395.779188557804)" fill="#152436" fill-rule="evenodd" stroke="#152436" stroke-width="9.6" stroke-linecap="square" stroke-linejoin="bevel" width="147.6" height="2.88" rx="4.32" ry="1.44"/><rect id="shape011" transform="matrix(1.4362463808877 0 0 1.48503399021899 127.329434252104 18.8252522752888)" fill="none" stroke="#152436" stroke-width="14.4624" stroke-linecap="square" stroke-linejoin="bevel" width="209.04" height="220.08" rx="4.32" ry="4.32"/><path id="shape15" transform="matrix(1.49638997503937 0 0 1.49645984982781 54.3023290406229 342.959281637009)" fill="none" stroke="#152436" stroke-width="14.4624" stroke-linecap="square" stroke-linejoin="bevel" d="M41.6695 0C-5.68765 0.00120586 -14.2215 54.7214 24.0309 54.7204"/><path id="shape01" transform="matrix(1.49639000572902 0 0 1.49645988051889 90.0837485713045 350.683680354254)" fill="none" stroke="#152436" stroke-width="3.7512" stroke-linecap="square" stroke-linejoin="bevel" d="M33.3472 0C22.3663 0 11.0708 0.254558 0 0.254558"/><path id="shape012" transform="matrix(1.44591215698441 0 0 1.51340084859045 53.4218404154096 19.5042455409602)" fill="none" stroke="#152436" stroke-width="14.4624" stroke-linecap="square" stroke-linejoin="bevel" d="M48.4829 0.240984L37.6829 0L28.0828 1.43913L21.3626 3.11851L13.2024 5.99777L9.60214 8.39744L4.08168 13.4369L0.961159 19.1967L0 31.9166L0.461087 239.517"/><rect id="shape013" transform="matrix(1.69321915496261 0 0 1.6253590028058 83.7180326407542 422.023834668604)" fill="#152436" fill-rule="evenodd" stroke="#152436" stroke-width="9.9936" stroke-linecap="square" stroke-linejoin="bevel" width="203.04" height="3.35999999999996" rx="4.32" ry="1.67999999999998"/><path id="shape014" transform="matrix(1.49639003641867 0 0 1.49645991120998 87.413744018302 381.49068800049)" fill="#1198c1" fill-rule="evenodd" stroke="#000000" stroke-opacity="0" stroke-width="0" stroke-linecap="square" stroke-linejoin="bevel" d="M0 0.721855L3.83965 0Z"/><path id="shape16" transform="matrix(1.49639003641867 0 0 1.49645991120998 88.5376317862744 382.211157015613)" fill="#1198c1" fill-rule="evenodd" stroke="#000000" stroke-opacity="0" stroke-width="0" stroke-linecap="square" stroke-linejoin="bevel" d="M0.0888179 0L0 64.5601L20.6282 40.1901L20.4889 0.230147Z"/><path id="shape015" transform="matrix(-1.49639003641867 0 0 1.49645991120998 150.586185602771 381.49068800049)" fill="#1198c1" fill-rule="evenodd" stroke="#000000" stroke-opacity="0" stroke-width="0" stroke-linecap="square" stroke-linejoin="bevel" d="M0 0.721855L3.83965 0Z"/><path id="shape17" transform="matrix(-1.49639003641867 0 0 1.49645991120998 149.462297834798 382.211157015613)" fill="#1198c1" fill-rule="evenodd" stroke="#000000" stroke-opacity="0" stroke-width="0" stroke-linecap="square" stroke-linejoin="bevel" d="M0.0888179 0L0 64.5601L20.6282 40.1901L20.4889 0.230147Z"/>
</svg>
