<?xml version="1.0" encoding="UTF-8"?>
<svg xmlns="http://www.w3.org/2000/svg" xmlns:xlink="http://www.w3.org/1999/xlink" width="128px" height="128px" viewBox="0 0 128 128" version="1.1">
<g id="surface1">
<path style="fill-rule:evenodd;fill:rgb(100%,100%,100%);fill-opacity:1;stroke-width:9.6;stroke-linecap:square;stroke-linejoin:bevel;stroke:rgb(100%,100%,100%);stroke-opacity:1;stroke-miterlimit:4;" d="M 2.874725 0.000938416 L 292.7966 0.000938416 C 294.39328 0.000938416 295.682343 1.290001 295.682343 2.886681 L 295.682343 311.998009 C 295.682343 313.594688 294.39328 314.883751 292.7966 314.883751 L 2.874725 314.883751 C 1.292694 314.883751 0.00363159 313.594688 0.00363159 311.998009 L 0.00363159 2.886681 C 0.00363159 1.290001 1.292694 0.000938416 2.874725 0.000938416 Z M 2.874725 0.000938416 " transform="matrix(0.266667,0,0,0.266667,33.792,6.656)"/>
<path style="fill:none;stroke-width:9.6;stroke-linecap:square;stroke-linejoin:bevel;stroke:rgb(100%,100%,100%);stroke-opacity:1;stroke-miterlimit:4;" d="M 0.357773 0.00164795 L 0.723984 0.00164795 L 0.00621033 0.00164795 Z M 0.357773 0.00164795 " transform="matrix(0.266667,0,0,0.266667,20.096,83.647998)"/>
<path style="fill-rule:evenodd;fill:rgb(100%,100%,100%);fill-opacity:1;stroke-width:9.6;stroke-linecap:square;stroke-linejoin:bevel;stroke:rgb(100%,100%,100%);stroke-opacity:1;stroke-miterlimit:4;" d="M 2.887146 -0.00622559 L 349.43988 -0.00622559 C 351.03656 -0.00622559 352.325623 1.282837 352.325623 2.879517 L 352.325623 105.12561 C 352.325623 106.707642 351.03656 107.996704 349.43988 107.996704 L 2.887146 107.996704 C 1.290466 107.996704 0.00140381 106.707642 0.00140381 105.12561 L 0.00140381 2.879517 C 0.00140381 1.282837 1.290466 -0.00622559 2.887146 -0.00622559 Z M 2.887146 -0.00622559 " transform="matrix(0.266667,0,0,0.266667,17.984001,83.904004)"/>
<path style="fill-rule:evenodd;fill:rgb(100%,100%,100%);fill-opacity:1;stroke-width:9.6;stroke-linecap:square;stroke-linejoin:bevel;stroke:rgb(100%,100%,100%);stroke-opacity:1;stroke-miterlimit:4;" d="M 2.873787 0.00305176 L 40.564217 0.00305176 C 42.146248 0.00305176 43.43531 1.292114 43.43531 2.874146 L 43.43531 57.600708 C 43.43531 59.197388 42.146248 60.48645 40.564217 60.48645 L 2.873787 60.48645 C 1.291756 60.48645 0.00269318 59.197388 0.00269318 57.600708 L 0.00269318 2.874146 C 0.00269318 1.292114 1.291756 0.00305176 2.873787 0.00305176 Z M 2.873787 0.00305176 " transform="matrix(0.266667,0,0,0.266667,19.136001,93.631999)"/>
<path style="fill-rule:evenodd;fill:rgb(8.235294%,14.117648%,21.176471%);fill-opacity:1;stroke-width:14.4624;stroke-linecap:square;stroke-linejoin:bevel;stroke:rgb(8.235294%,14.117648%,21.176471%);stroke-opacity:1;stroke-miterlimit:4;" d="M 12.002607 0.000219627 C 18.630253 0.000219627 23.99916 6.235113 23.99916 13.915778 L 23.99916 84.95942 C 23.99916 92.650126 18.630253 98.874978 12.002607 98.874978 C 5.374961 98.874978 -0.000367935 92.650126 -0.000367935 84.95942 L -0.000367935 13.915778 C -0.000367935 6.235113 5.374961 0.000219627 12.002607 0.000219627 Z M 12.002607 0.000219627 " transform="matrix(0.608248,0,0,0.389065,65.664286,19.964758)"/>
<path style="fill-rule:evenodd;fill:rgb(8.235294%,14.117648%,21.176471%);fill-opacity:1;stroke-width:8.9424;stroke-linecap:square;stroke-linejoin:bevel;stroke:rgb(8.235294%,14.117648%,21.176471%);stroke-opacity:1;stroke-miterlimit:4;" d="M 8.876251 -0.00101966 L 59.760432 -0.00101966 C 64.664813 -0.00101966 68.639222 2.1525 68.639222 4.795457 C 68.639222 7.448202 64.664813 9.601722 59.760432 9.601722 L 8.876251 9.601722 C 3.97187 9.601722 -0.00253907 7.448202 -0.00253907 4.795457 C -0.00253907 2.1525 3.97187 -0.00101966 8.876251 -0.00101966 Z M 8.876251 -0.00101966 " transform="matrix(0.399037,0,0,0.399056,58.883826,77.234782)"/>
<path style="fill-rule:evenodd;fill:rgb(8.235294%,14.117648%,21.176471%);fill-opacity:1;stroke-width:8.9424;stroke-linecap:square;stroke-linejoin:bevel;stroke:rgb(8.235294%,14.117648%,21.176471%);stroke-opacity:1;stroke-miterlimit:4;" d="M 3.715485 -0.00403785 C 5.771214 -0.00403785 7.435375 3.979974 7.435375 8.884127 L 7.435375 15.599194 C 7.435375 20.503346 5.771214 24.477569 3.715485 24.477569 C 1.669545 24.477569 -0.00440513 20.503346 -0.00440513 15.599194 L -0.00440513 8.884127 C -0.00440513 3.979974 1.669545 -0.00403785 3.715485 -0.00403785 Z M 3.715485 -0.00403785 " transform="matrix(0.399037,0,0,0.399056,71.333789,68.23208)"/>
<path style="fill-rule:evenodd;fill:rgb(8.235294%,14.117648%,21.176471%);fill-opacity:1;stroke-width:8.9424;stroke-linecap:square;stroke-linejoin:bevel;stroke:rgb(8.235294%,14.117648%,21.176471%);stroke-opacity:1;stroke-miterlimit:4;" d="M 6.59229 -0.0039701 C 10.250155 0.00515225 13.205252 3.966629 13.193934 8.888333 L 13.203952 36.721537 C 13.19255 41.625217 10.240219 45.595486 6.599609 45.603838 C 2.958914 45.594166 0.00381703 41.63269 -0.00203551 36.711535 L 0.00511713 8.877781 C -0.000651079 3.974651 2.95168 0.00438223 6.59229 -0.0039701 Z M 6.59229 -0.0039701 " transform="matrix(0.227466,0.00693493,-0.00106428,0.21669,51.49266,42.857487)"/>
<path style="fill-rule:evenodd;fill:rgb(8.235294%,14.117648%,21.176471%);fill-opacity:1;stroke-width:8.9424;stroke-linecap:square;stroke-linejoin:bevel;stroke:rgb(8.235294%,14.117648%,21.176471%);stroke-opacity:1;stroke-miterlimit:4;" d="M 6.592111 -0.00396437 C 10.249977 0.00515798 13.205073 3.966635 13.193756 8.888339 L 13.203773 36.721543 C 13.192371 41.625223 10.24004 45.595491 6.59943 45.603844 C 2.958735 45.594172 0.00363817 41.632695 -0.00221437 36.711541 L 0.00493827 8.877787 C -0.000829937 3.974656 2.951501 0.00438796 6.592111 -0.00396437 Z M 6.592111 -0.00396437 " transform="matrix(0.227466,0.00693493,-0.00106428,0.21669,91.332544,42.857487)"/>
<path style="fill:none;stroke-width:12.8832;stroke-linecap:square;stroke-linejoin:bevel;stroke:rgb(8.235294%,14.117648%,21.176471%);stroke-opacity:1;stroke-miterlimit:4;" d="M -0.00366663 -0.00225363 C 0.00139919 26.322822 22.867278 48.367431 49.042683 48.370381 " transform="matrix(0.390097,0.0027916,-0.002746,0.389065,52.977987,49.594637)"/>
<path style="fill:none;stroke-width:12.8832;stroke-linecap:square;stroke-linejoin:bevel;stroke:rgb(8.235294%,14.117648%,21.176471%);stroke-opacity:1;stroke-miterlimit:4;" d="M -0.0041047 -0.00225048 C 0.000961118 26.322825 22.86684 48.367435 49.042245 48.370384 " transform="matrix(-0.390097,0.0027916,0.002746,0.389065,92.849967,49.594637)"/>
<path style="fill-rule:evenodd;fill:rgb(6.666667%,59.607846%,75.686276%);fill-opacity:1;stroke-width:9.6;stroke-linecap:square;stroke-linejoin:bevel;stroke:rgb(6.666667%,59.607846%,75.686276%);stroke-opacity:1;stroke-miterlimit:4;" d="M 4.315478 0.00413727 L 40.564828 0.00413727 C 42.943599 0.00413727 44.881858 1.932517 44.881858 4.320966 L 44.881858 194.163546 C 44.881858 196.542207 42.943599 198.480375 40.564828 198.480375 L 4.315478 198.480375 C 1.936706 198.480375 -0.0015525 196.542207 -0.0015525 194.163546 L -0.0015525 4.320966 C -0.0015525 1.932517 1.936706 0.00413727 4.315478 0.00413727 Z M 4.315478 0.00413727 " transform="matrix(0.399037,0,0,0.399056,15.692026,10.576474)"/>
<path style="fill-rule:evenodd;fill:rgb(6.666667%,59.607846%,75.686276%);fill-opacity:1;stroke-width:9.6;stroke-linecap:square;stroke-linejoin:bevel;stroke:rgb(6.666667%,59.607846%,75.686276%);stroke-opacity:1;stroke-miterlimit:4;" d="M 4.31988 0.00400089 L 17.515701 0.00400089 C 19.904262 0.00400089 21.84252 1.93238 21.84252 4.32083 L 21.84252 7.678363 C 21.84252 10.066813 19.904262 11.995192 17.515701 11.995192 L 4.31988 11.995192 C 1.931319 11.995192 0.00285008 10.066813 0.00285008 7.678363 L 0.00285008 4.32083 C 0.00285008 1.93238 1.931319 0.00400089 4.31988 0.00400089 Z M 4.31988 0.00400089 " transform="matrix(0.399037,0,0,0.399056,24.502769,7.990591)"/>
<path style="fill-rule:evenodd;fill:rgb(6.666667%,59.607846%,75.686276%);fill-opacity:1;stroke-width:9.6;stroke-linecap:square;stroke-linejoin:bevel;stroke:rgb(6.666667%,59.607846%,75.686276%);stroke-opacity:1;stroke-miterlimit:4;" d="M 4.323949 -0.000122359 L 7.91658 -0.000122359 C 10.305141 -0.000122359 12.243399 1.938046 12.243399 4.316706 L 12.243399 8.163676 C 12.243399 10.542337 10.305141 12.480505 7.91658 12.480505 L 4.323949 12.480505 C 1.935388 12.480505 -0.00287047 10.542337 -0.00287047 8.163676 L -0.00287047 4.316706 C -0.00287047 1.938046 1.935388 -0.000122359 4.323949 -0.000122359 Z M 4.323949 -0.000122359 " transform="matrix(0.399037,0,0,0.399056,16.458177,87.386768)"/>
<path style=" stroke:none;fill-rule:evenodd;fill:rgb(6.666667%,59.607846%,75.686276%);fill-opacity:1;" d="M 97.957031 5.691406 L 113.089844 19.292969 Z M 97.957031 5.691406 "/>
<path style=" stroke:none;fill-rule:evenodd;fill:rgb(6.666667%,59.607846%,75.686276%);fill-opacity:1;" d="M 96.472656 6.265625 L 112.851562 22.070312 Z M 96.472656 6.265625 "/>
<path style=" stroke:none;fill-rule:evenodd;fill:rgb(6.666667%,59.607846%,75.686276%);fill-opacity:1;" d="M 112.5625 6.265625 L 112.707031 24.367188 L 94.75 6.554688 Z M 112.5625 6.265625 "/>
<path style=" stroke:none;fill-rule:evenodd;fill:rgb(6.666667%,59.607846%,75.686276%);fill-opacity:1;" d="M 96.472656 91.410156 L 112.851562 75.605469 Z M 96.472656 91.410156 "/>
<path style=" stroke:none;fill-rule:evenodd;fill:rgb(6.666667%,59.607846%,75.686276%);fill-opacity:1;" d="M 112.5625 91.410156 L 112.707031 73.308594 L 94.75 91.121094 Z M 112.5625 91.410156 "/>
<path style="fill:none;stroke-width:9.6;stroke-linecap:square;stroke-linejoin:miter;stroke:rgb(8.235294%,14.117648%,21.176471%);stroke-opacity:1;stroke-miterlimit:2;" d="M -0.00462947 -0.00148615 L 44.281641 44.997294 " transform="matrix(0.399037,0,0,0.399056,95.611222,6.984968)"/>
<path style="fill:none;stroke-width:9.6;stroke-linecap:square;stroke-linejoin:miter;stroke:rgb(8.235294%,14.117648%,21.176471%);stroke-opacity:1;stroke-miterlimit:2;" d="M 0.000999313 42.240724 L 41.76166 0.00236561 " transform="matrix(0.399037,0,0,0.399056,96.616789,72.733431)"/>
<path style="fill-rule:evenodd;fill:rgb(8.235294%,14.117648%,21.176471%);fill-opacity:1;stroke-width:9.6;stroke-linecap:square;stroke-linejoin:bevel;stroke:rgb(8.235294%,14.117648%,21.176471%);stroke-opacity:1;stroke-miterlimit:4;" d="M 4.323286 -0.00280689 L 143.281181 -0.00280689 C 145.663316 -0.00280689 147.598801 0.649796 147.598801 1.439234 C 147.598801 2.239199 145.663316 2.881275 143.281181 2.881275 L 4.323286 2.881275 C 1.931225 2.881275 -0.00425972 2.239199 -0.00425972 1.439234 C -0.00425972 0.649796 1.931225 -0.00280689 4.323286 -0.00280689 Z M 4.323286 -0.00280689 " transform="matrix(0.393554,0,0,0.37111,47.337614,98.836979)"/>
<path style="fill-rule:evenodd;fill:rgb(8.235294%,14.117648%,21.176471%);fill-opacity:1;stroke-width:9.6;stroke-linecap:square;stroke-linejoin:bevel;stroke:rgb(8.235294%,14.117648%,21.176471%);stroke-opacity:1;stroke-miterlimit:4;" d="M 4.323286 0.00499978 L 143.281181 0.00499978 C 145.663316 0.00499978 147.598801 0.647076 147.598801 1.436515 C 147.598801 2.236479 145.663316 2.878556 143.281181 2.878556 L 4.323286 2.878556 C 1.931225 2.878556 -0.00425972 2.236479 -0.00425972 1.436515 C -0.00425972 0.647076 1.931225 0.00499978 4.323286 0.00499978 Z M 4.323286 0.00499978 " transform="matrix(0.393554,0,0,0.37111,47.337614,105.541113)"/>
<path style="fill:none;stroke-width:14.4624;stroke-linecap:square;stroke-linejoin:bevel;stroke:rgb(8.235294%,14.117648%,21.176471%);stroke-opacity:1;stroke-miterlimit:4;" d="M 4.32079 -0.00135374 L 204.723137 -0.00135374 C 207.109729 -0.00135374 209.037361 1.931998 209.037361 4.319097 L 209.037361 215.764699 C 209.037361 218.141933 207.109729 220.075285 204.723137 220.075285 L 4.32079 220.075285 C 1.934198 220.075285 -0.00363343 218.141933 -0.00363343 215.764699 L -0.00363343 4.319097 C -0.00363343 1.931998 1.934198 -0.00135374 4.32079 -0.00135374 Z M 4.32079 -0.00135374 " transform="matrix(0.382999,0,0,0.396009,33.954517,5.020067)"/>
<path style="fill:none;stroke-width:14.4624;stroke-linecap:square;stroke-linejoin:bevel;stroke:rgb(8.235294%,14.117648%,21.176471%);stroke-opacity:1;stroke-miterlimit:4;" d="M 41.672176 0.00305898 C -5.687899 0.00305898 -14.224067 54.722045 24.032065 54.722045 " transform="matrix(0.399037,0,0,0.399056,14.480621,91.455811)"/>
<path style="fill:none;stroke-width:3.7512;stroke-linecap:square;stroke-linejoin:bevel;stroke:rgb(8.235294%,14.117648%,21.176471%);stroke-opacity:1;stroke-miterlimit:4;" d="M 33.344731 -0.0000611795 C 22.371055 -0.0000611795 11.074336 0.254446 0.0027685 0.254446 " transform="matrix(0.399037,0,0,0.399056,24.022333,93.515649)"/>
<path style="fill:none;stroke-width:14.4624;stroke-linecap:square;stroke-linejoin:bevel;stroke:rgb(8.235294%,14.117648%,21.176471%);stroke-opacity:1;stroke-miterlimit:4;" d="M 48.48734 0.237238 L 37.687766 -0.00474127 L 28.083643 1.437452 L 21.366835 3.121625 L 13.201304 5.996333 L 9.604823 8.396763 L 4.083465 13.439602 L 0.963138 19.198698 L 0.00069914 31.917105 L 0.456591 239.515574 " transform="matrix(0.385577,0,0,0.403574,14.245824,5.201132)"/>
<path style="fill-rule:evenodd;fill:rgb(8.235294%,14.117648%,21.176471%);fill-opacity:1;stroke-width:9.9936;stroke-linecap:square;stroke-linejoin:bevel;stroke:rgb(8.235294%,14.117648%,21.176471%);stroke-opacity:1;stroke-miterlimit:4;" d="M 4.324311 -0.00144574 L 198.717567 -0.00144574 C 201.105308 -0.00144574 203.043185 0.755599 203.043185 1.683879 C 203.043185 2.612159 201.105308 3.360191 198.717567 3.360191 L 4.324311 3.360191 C 1.93657 3.360191 -0.0013067 2.612159 -0.0013067 1.683879 C -0.0013067 0.755599 1.93657 -0.00144574 4.324311 -0.00144574 Z M 4.324311 -0.00144574 " transform="matrix(0.451525,0,0,0.433429,22.324809,112.539689)"/>
<path style=" stroke:none;fill-rule:evenodd;fill:rgb(6.666667%,59.607846%,75.686276%);fill-opacity:1;" d="M 23.308594 102.019531 L 24.84375 101.730469 Z M 23.308594 102.019531 "/>
<path style=" stroke:none;fill-rule:evenodd;fill:rgb(6.666667%,59.607846%,75.686276%);fill-opacity:1;" d="M 23.644531 101.921875 L 23.609375 127.6875 L 31.839844 117.960938 L 31.785156 102.015625 Z M 23.644531 101.921875 "/>
<path style=" stroke:none;fill-rule:evenodd;fill:rgb(6.666667%,59.607846%,75.686276%);fill-opacity:1;" d="M 40.15625 102.019531 L 38.625 101.730469 Z M 40.15625 102.019531 "/>
<path style=" stroke:none;fill-rule:evenodd;fill:rgb(6.666667%,59.607846%,75.686276%);fill-opacity:1;" d="M 39.820312 101.921875 L 39.855469 127.6875 L 31.625 117.960938 L 31.679688 102.015625 Z M 39.820312 101.921875 "/>
</g>
</svg>
